<svg id="Grupo_7206" data-name="Grupo 7206" xmlns="http://www.w3.org/2000/svg" xmlns:xlink="http://www.w3.org/1999/xlink" width="68.58" height="68.576" viewBox="0 0 68.58 68.576">
  <defs>
    <clipPath id="clip-path">
      <rect id="Rectángulo_1819" data-name="Rectángulo 1819" width="68.58" height="68.576" fill="#414141"/>
    </clipPath>
  </defs>
  <g id="Grupo_7205" data-name="Grupo 7205" clip-path="url(#clip-path)">
    <path id="Trazado_16299" data-name="Trazado 16299" d="M34.29,0A34.288,34.288,0,1,0,68.58,34.29,34.328,34.328,0,0,0,34.29,0m0,60.817a26.357,26.357,0,0,1-14.715-4.472l-1.11-.74,6.246-6.246a13.881,13.881,0,0,1-2.224-3,13.605,13.605,0,0,1-1.454-4.3l-8.058,8.058-.74-1.11A26.513,26.513,0,0,1,49.01,12.231l1.105.74L47.56,15.527,47.7,17.3a13.613,13.613,0,0,1-.689,5.33l.761.118.118,1.77a13.674,13.674,0,0,1,0,1.66L55.6,18.465l.744,1.106A26.516,26.516,0,0,1,34.29,60.817" fill="#414141"/>
    <path id="Trazado_16300" data-name="Trazado 16300" d="M240.455,164.117a10.587,10.587,0,0,0-9.9,5.246c-1.91-3.633-6.1-5.515-10.252-5.229a11.443,11.443,0,0,1-1.219-5.981c5.6-.869,10.971,2.357,11.294,8.041.311-5.653,5.626-8.891,11.29-8.041a11.411,11.411,0,0,1-1.21,5.964" transform="translate(-196.174 -141.508)" fill="#414141"/>
    <path id="Trazado_16301" data-name="Trazado 16301" d="M242.161,240.556c-4.043-.279-8.3,1.528-10.248,5.225A10.576,10.576,0,0,0,222,240.539a11.516,11.516,0,0,1-1.2-5.964c5.311-1.013,10.961,2.27,11.29,8.041.283-5.66,5.847-9,11.3-8.041a11.578,11.578,0,0,1-1.227,5.981" transform="translate(-197.712 -209.91)" fill="#414141"/>
    <path id="Trazado_16302" data-name="Trazado 16302" d="M240.459,317.717a10.567,10.567,0,0,0-9.907,5.241c-1.947-3.685-6.023-5.4-10.256-5.229a11.439,11.439,0,0,1-1.215-5.973c5.583-.872,11.021,2.394,11.294,8.037.256-4.989,4.852-8.956,11.29-8.037a11.455,11.455,0,0,1-1.206,5.96" transform="translate(-196.173 -279.068)" fill="#414141"/>
    <path id="Trazado_16303" data-name="Trazado 16303" d="M232.092,400.352h-.029a11.377,11.377,0,0,1-11.273-12.177c5.381-1.023,10.965,2.339,11.29,8.032.26-5.134,5.049-8.951,11.3-8.032a11.377,11.377,0,0,1-11.286,12.177" transform="translate(-197.701 -347.467)" fill="#414141"/>
  </g>
</svg>
