<svg xmlns="http://www.w3.org/2000/svg" xmlns:xlink="http://www.w3.org/1999/xlink" width="96" height="74.018" viewBox="0 0 96 74.018">
  <defs>
    <clipPath id="clip-path">
      <rect id="Rect치ngulo_1819" data-name="Rect치ngulo 1819" width="68.58" height="68.576" fill="#414141"/>
    </clipPath>
    <clipPath id="clip-path-2">
      <rect id="Rect치ngulo_1819-2" data-name="Rect치ngulo 1819" width="39.809" height="39.806" fill="#414141"/>
    </clipPath>
  </defs>
  <g id="Grupo_7241" data-name="Grupo 7241" transform="translate(-814 -689.982)">
    <g id="Grupo_7240" data-name="Grupo 7240" transform="translate(336)">
      <g id="Grupo_7231" data-name="Grupo 7231" transform="translate(478 689.982)">
        <g id="Grupo_7206" data-name="Grupo 7206">
          <g id="Grupo_7205" data-name="Grupo 7205" clip-path="url(#clip-path)">
            <g id="Grupo_7232" data-name="Grupo 7232">
              <path id="Trazado_16299" data-name="Trazado 16299" d="M34.29,0A34.288,34.288,0,1,0,68.58,34.29,34.328,34.328,0,0,0,34.29,0m0,60.817a26.357,26.357,0,0,1-14.715-4.472l-1.11-.74,6.246-6.246a13.881,13.881,0,0,1-2.224-3,13.605,13.605,0,0,1-1.454-4.3l-8.058,8.058-.74-1.11A26.513,26.513,0,0,1,49.01,12.231l1.105.74L47.56,15.527,47.7,17.3a13.613,13.613,0,0,1-.689,5.33l.761.118.118,1.77a13.674,13.674,0,0,1,0,1.66L55.6,18.465l.744,1.106A26.516,26.516,0,0,1,34.29,60.817" transform="translate(0 0.018)" fill="#414141"/>
              <circle id="Elipse_23" data-name="Elipse 23" cx="27" cy="27" r="27" transform="translate(7 7.018)" fill="#fd779b"/>
            </g>
          </g>
        </g>
      </g>
      <path id="Trazado_16307" data-name="Trazado 16307" d="M212.34,137.6a3.31,3.31,0,0,0,4.758-3.457l-1.6-9.628,6.954-6.849a3.31,3.31,0,0,0-1.817-5.593l-9.651-1.454-4.365-8.73a3.31,3.31,0,0,0-5.88,0l-4.365,8.729-9.651,1.454a3.31,3.31,0,0,0-1.817,5.593l6.954,6.849-1.6,9.628a3.31,3.31,0,0,0,4.758,3.457l8.662-4.5Z" transform="translate(308.927 604.196)" fill="#414141" stroke="#fd779b" stroke-width="5"/>
    </g>
    <g id="Grupo_7237" data-name="Grupo 7237" transform="translate(864.019 718.633)">
      <circle id="Elipse_24" data-name="Elipse 24" cx="23" cy="23" r="23" transform="translate(-0.019 -0.633)" fill="#fd779b"/>
      <g id="Grupo_7239" data-name="Grupo 7239" transform="translate(2.897 2.831)">
        <g id="Grupo_7231-2" data-name="Grupo 7231" transform="translate(0)">
          <g id="Grupo_7206-2" data-name="Grupo 7206">
            <g id="Grupo_7205-2" data-name="Grupo 7205" clip-path="url(#clip-path-2)">
              <g id="Grupo_7232-2" data-name="Grupo 7232" transform="translate(0 0.011)">
                <path id="Trazado_16299-2" data-name="Trazado 16299" d="M19.9,0a19.9,19.9,0,1,0,19.9,19.9A19.926,19.926,0,0,0,19.9,0m0,35.3a15.3,15.3,0,0,1-8.542-2.6l-.644-.429,3.626-3.626a8.057,8.057,0,0,1-1.291-1.742,7.9,7.9,0,0,1-.844-2.5L7.532,29.091,7.1,28.446A15.39,15.39,0,0,1,28.449,7.1l.642.429L27.607,9.013l.081,1.03a7.9,7.9,0,0,1-.4,3.094l.442.068.068,1.027a7.936,7.936,0,0,1,0,.964l4.477-4.477.432.642A15.392,15.392,0,0,1,19.9,35.3" fill="#414141"/>
                <circle id="Elipse_23-2" data-name="Elipse 23" cx="15.5" cy="15.5" r="15.5" transform="translate(4.084 4.525)" fill="#fd779b"/>
              </g>
            </g>
          </g>
        </g>
        <path id="Trazado_16307-2" data-name="Trazado 16307" d="M200.424,121.867a1.922,1.922,0,0,0,2.762-2.006l-.929-5.589,4.036-3.975a1.921,1.921,0,0,0-1.055-3.246l-5.6-.844-2.534-5.067a1.921,1.921,0,0,0-3.413,0l-2.534,5.067-5.6.844A1.921,1.921,0,0,0,184.5,110.3l4.036,3.975-.929,5.589a1.921,1.921,0,0,0,2.762,2.006l5.028-2.61Z" transform="translate(-175.309 -91.791)" fill="#414141" stroke="#fd779b" stroke-width="3"/>
      </g>
    </g>
  </g>
</svg>
