<svg xmlns="http://www.w3.org/2000/svg" xmlns:xlink="http://www.w3.org/1999/xlink" width="68.58" height="68.576" viewBox="0 0 68.58 68.576">
  <defs>
    <clipPath id="clip-path">
      <rect id="Rectángulo_1819" data-name="Rectángulo 1819" width="68.58" height="68.576" fill="#414141"/>
    </clipPath>
  </defs>
  <g id="Grupo_7234" data-name="Grupo 7234" transform="translate(-478 -689.982)">
    <g id="Grupo_7231" data-name="Grupo 7231" transform="translate(478 689.982)">
      <g id="Grupo_7206" data-name="Grupo 7206">
        <g id="Grupo_7205" data-name="Grupo 7205" clip-path="url(#clip-path)">
          <g id="Grupo_7232" data-name="Grupo 7232">
            <path id="Trazado_16299" data-name="Trazado 16299" d="M34.29,0A34.288,34.288,0,1,0,68.58,34.29,34.328,34.328,0,0,0,34.29,0m0,60.817a26.357,26.357,0,0,1-14.715-4.472l-1.11-.74,6.246-6.246a13.881,13.881,0,0,1-2.224-3,13.605,13.605,0,0,1-1.454-4.3l-8.058,8.058-.74-1.11A26.513,26.513,0,0,1,49.01,12.231l1.105.74L47.56,15.527,47.7,17.3a13.613,13.613,0,0,1-.689,5.33l.761.118.118,1.77a13.674,13.674,0,0,1,0,1.66L55.6,18.465l.744,1.106A26.516,26.516,0,0,1,34.29,60.817" transform="translate(0 0.018)" fill="#414141"/>
            <circle id="Elipse_23" data-name="Elipse 23" cx="27" cy="27" r="27" transform="translate(7 7.018)" fill="#4db5f6"/>
          </g>
        </g>
      </g>
    </g>
    <path id="Trazado_16307" data-name="Trazado 16307" d="M212.34,137.6a3.31,3.31,0,0,0,4.758-3.457l-1.6-9.628,6.954-6.849a3.31,3.31,0,0,0-1.817-5.593l-9.651-1.454-4.365-8.73a3.31,3.31,0,0,0-5.88,0l-4.365,8.729-9.651,1.454a3.31,3.31,0,0,0-1.817,5.593l6.954,6.849-1.6,9.628a3.31,3.31,0,0,0,4.758,3.457l8.662-4.5Z" transform="translate(308.927 604.196)" fill="#414141" stroke="#4db5f6" stroke-width="5"/>
  </g>
</svg>
