<svg xmlns="http://www.w3.org/2000/svg" width="16.85" height="16.534" viewBox="0 0 16.85 16.534">
  <g id="Grupo_10" data-name="Grupo 10" transform="translate(-1539.502 -591.603)">
    <g id="Grupo_39" data-name="Grupo 39" transform="translate(1539.502 591.603)">
      <g id="Grupo_38" data-name="Grupo 38" transform="translate(0 0)">
        <path id="Trazado_43" data-name="Trazado 43" d="M1541.865,638.081l-.908,2.365,2.333-.892-.018.585,1.513-.919a2.39,2.39,0,0,1-1.424-.565,2.734,2.734,0,0,1-1-2.421l-1.143,1.815Z" transform="translate(-1540.566 -624.226)" fill="#fff"/>
        <path id="Trazado_44" data-name="Trazado 44" d="M1549.415,621.8a.194.194,0,0,1-.089.057.2.2,0,0,1-.246-.129.194.194,0,0,1,.033-.182h0l2.215-2.78a3.686,3.686,0,0,1-.088-.361l-.013-.05c-.032-.15-.061-.286-.079-.41l-1.25,1.588c-.4.523-.727.979-.95,1.329-.06.094-.114.172-.159.241a4.452,4.452,0,0,0-.493.928,2.344,2.344,0,0,0,.586,2.846,1.887,1.887,0,0,0,1.89.336,4.957,4.957,0,0,0,1.167-.581c.294-.19.832-.57,1.514-1.072.627-.46,1.378-1.025,2.179-1.64a4.512,4.512,0,0,1-3.3-1.5,4.8,4.8,0,0,1-.5-.621.052.052,0,0,0-.006-.01c-.006-.01-.015-.021-.021-.031-.079-.118-.151-.236-.218-.357l-2.168,2.4Z" transform="translate(-1545.759 -610.856)" fill="#fff"/>
        <path id="Trazado_45" data-name="Trazado 45" d="M1571.015,592.612a3.841,3.841,0,0,0-5.607.418c-1.051,1.23-4.112,4.859-4.216,4.983l0,0a2.552,2.552,0,0,0,.023,1l0,0,.03-.037c.656-.819,1.315-1.6,2.038-2.507.3-.373.6-.746.891-1.113.145-.183.291-.364.434-.543.077-.1.15-.187.225-.28s.151-.179.228-.266q.228-.263.467-.509a6.191,6.191,0,0,1,.51-.468c.022-.019.046-.037.069-.055a.78.78,0,0,1,.074-.055c.051-.036.1-.071.155-.107l.086-.051.022-.012.01-.007,0,0a.079.079,0,0,0,.015-.008l.032-.016.066-.033.032-.016.042-.018c.053-.024.111-.048.162-.068s.108-.034.158-.054.268-.086.316-.1a2.933,2.933,0,0,1,1.213-.08c.09.018.179.036.262.056s.162.048.238.072a3.394,3.394,0,0,1,.392.171h0a.631.631,0,0,1,.317.374.635.635,0,0,1-.918.744h0a1.971,1.971,0,0,0-.233-.121l-.136-.052-.149-.042-.079-.015a.459.459,0,0,0-.083-.013,1.585,1.585,0,0,0-.172-.013,1.766,1.766,0,0,0-.387.035c-.035.008-.07.013-.1.022l-.106.03-.108.035c-.038.012-.069.026-.1.039l-.026.009-.033.015-.067.03-.033.015,0,0-.01,0-.045.024c-.029.013-.063.038-.1.058-.017.011-.033.019-.049.032l-.054.038a5.183,5.183,0,0,0-.443.361c-.15.136-.3.282-.453.436-.076.077-.151.155-.226.235s-.152.164-.222.242l-.471.522-.956,1.057c-.884.978-1.7,1.827-2.479,2.689l0,0a3.864,3.864,0,0,0,.311.542,4.881,4.881,0,0,0,.429.525,4.507,4.507,0,0,0,1.265.961s0,0,0,0a4.352,4.352,0,0,0,2.27.4,68.833,68.833,0,0,0,5.6-4.659,2.829,2.829,0,0,0,.85-2.08A4.189,4.189,0,0,0,1571.015,592.612Z" transform="translate(-1555.327 -591.603)" fill="#fff"/>
        <g id="Grupo_36" data-name="Grupo 36" transform="translate(5.248 13.181)">
          <path id="Trazado_46" data-name="Trazado 46" d="M1559.164,643.948a.058.058,0,0,1-.072-.078c.107-.228.337-.712.463-.978.021-.044,0-.068-.023-.1-.151-.18-.3-.36-.452-.542-.024-.03-.072-.1-.072-.1l.035-.014a6.756,6.756,0,0,0,1.565-.748,7.685,7.685,0,0,0,1.053-.793s-.086.867-.123,1.252a2.424,2.424,0,0,1-.378,1.1.928.928,0,0,1-.374.363C1560.258,643.553,1559.71,643.746,1559.164,643.948Z" transform="translate(-1559.009 -640.598)" fill="#fff" fill-rule="evenodd"/>
        </g>
        <g id="Grupo_37" data-name="Grupo 37" transform="translate(0 8.343)">
          <path id="Trazado_47" data-name="Trazado 47" d="M1541.426,622.725a16.848,16.848,0,0,1,1.688-.1l.071-.006-.051.061a8.79,8.79,0,0,0-1.615,2.721.287.287,0,0,1-.027.067s-.033-.031-.056-.051c-.207-.189-.418-.375-.624-.566a.137.137,0,0,0-.162-.03c-.3.108-.831.291-1.073.37a.058.058,0,0,1-.061-.016.058.058,0,0,1-.01-.062c.134-.307.473-1.137.671-1.565a1.229,1.229,0,0,1,.471-.517A2.347,2.347,0,0,1,1541.426,622.725Z" transform="translate(-1539.502 -622.614)" fill="#fff" fill-rule="evenodd"/>
        </g>
      </g>
    </g>
  </g>
</svg>
